<svg version="1.1" id="Layer_1" xmlns="http://www.w3.org/2000/svg" xmlns:xlink="http://www.w3.org/1999/xlink" x="0px" y="0px"
	 width="100%" viewBox="0 0 1024 1024" enable-background="new 0 0 1024 1024" xml:space="preserve">
<path fill="#01132B" opacity="1.000000" stroke="none" 
	d="
M1.000003,544.000000 
	C1.000000,522.979126 1.000000,501.958221 1.346461,480.298523 
	C2.444014,474.490845 3.523396,469.345154 3.891201,464.149139 
	C5.812209,437.010834 10.787883,410.370819 17.592728,384.115875 
	C28.921312,340.407074 45.719746,298.884705 68.079468,259.555511 
	C89.334343,222.169708 114.966103,188.098190 144.635849,157.132721 
	C157.493439,143.713654 171.380356,131.174530 185.615738,119.206306 
	C208.179764,100.235832 232.411148,83.542236 258.041840,68.854630 
	C296.984344,46.538704 338.086792,29.546301 381.465363,18.183498 
	C412.403442,10.079419 443.822174,4.606446 475.832336,2.912464 
	C477.251312,2.837369 478.612091,1.662563 480.000000,1.000000 
	C500.687561,1.000000 521.375122,1.000000 542.701965,1.346839 
	C547.204956,2.167831 551.082703,2.548752 554.929993,3.131573 
	C576.615784,6.416796 598.435242,9.028149 619.943848,13.227948 
	C657.206726,20.503946 692.843994,33.109306 727.201660,49.172573 
	C753.489075,61.462757 778.548950,75.943291 802.404724,92.545319 
	C825.542419,108.647575 847.351990,126.386993 867.362183,146.149673 
	C881.180908,159.797455 894.116150,174.418961 906.627991,189.293518 
	C929.098511,216.007187 947.934814,245.250336 964.045410,276.196930 
	C983.433960,313.440216 997.945984,352.523773 1007.656189,393.404449 
	C1015.252258,425.384613 1020.068176,457.760529 1020.855408,490.601440 
	C1021.317688,509.887482 1020.796021,529.230347 1019.856140,548.505676 
	C1019.169617,562.586304 1017.609009,576.678101 1015.509155,590.625122 
	C1010.563599,623.471741 1002.239929,655.514587 990.909058,686.749390 
	C979.517517,718.151062 965.224609,748.201172 947.788147,776.682678 
	C931.776611,802.836670 914.322144,828.037598 893.113586,850.294983 
	C876.957397,867.250183 860.741943,884.278381 843.232849,899.783569 
	C819.161072,921.100525 792.679016,939.306824 764.684937,955.298767 
	C725.549683,977.655518 684.279907,994.703491 640.681580,1006.013672 
	C609.543152,1014.091492 577.968933,1020.084167 545.739380,1020.915283 
	C519.980896,1021.579529 494.104797,1022.233154 468.438293,1020.525635 
	C446.467072,1019.064026 424.569122,1015.006775 402.905731,1010.741638 
	C365.164795,1003.310974 329.077942,990.515198 294.312164,974.103699 
	C268.517731,961.927307 243.915268,947.669312 220.469955,931.365234 
	C197.602417,915.463074 176.227875,897.762634 156.180328,878.502319 
	C146.600403,869.298523 137.509644,859.495483 128.984924,849.304993 
	C116.619675,834.523560 104.374023,819.571472 93.146683,803.924805 
	C74.956734,778.575073 59.783985,751.404480 46.901566,722.937317 
	C34.575119,695.698792 24.610786,667.640869 17.278751,638.700317 
	C9.710205,608.826172 4.447290,578.530090 2.897768,547.669434 
	C2.834916,546.417725 1.657913,545.221863 1.000003,544.000000 
M435.038971,305.952759 
	C435.038971,305.952759 435.156128,305.918030 434.829285,305.344788 
	C434.208801,305.169586 433.588318,304.994354 433.041718,304.958984 
	C433.041718,304.958984 433.181244,304.884491 432.859314,304.280457 
	C421.852570,298.503815 410.047119,298.037842 397.172485,298.953491 
	C384.397491,300.242157 372.331360,303.826324 361.548737,310.881622 
	C342.661133,323.240234 328.169098,339.823303 319.482025,360.478943 
	C312.551727,376.957428 307.828094,394.381500 302.507050,411.504517 
	C301.438507,414.943176 300.101898,415.988342 296.719818,415.811188 
	C292.236938,415.576385 287.720490,415.684998 283.231842,415.911072 
	C266.945770,416.731262 256.560211,425.720123 253.720612,441.804413 
	C253.282410,444.286621 254.568527,447.073212 255.660324,450.182434 
	C256.633545,450.435730 257.606781,450.689026 258.790100,450.814056 
	C258.790100,450.814056 258.985748,450.963318 259.492645,451.334503 
	C260.653534,451.252197 261.814423,451.169891 263.732300,450.970856 
	C264.493622,451.026794 265.254974,451.082764 266.418640,451.777161 
	C272.671204,453.454742 278.899109,454.409332 285.837646,451.010712 
	C287.564178,451.056061 289.290710,451.101410 291.199463,451.655884 
	C291.737885,452.096497 292.276276,452.537140 292.881775,453.614990 
	C292.598236,454.406311 292.314697,455.197662 291.906403,456.227631 
	C291.807800,456.486755 291.829376,456.741760 292.050476,457.826324 
	C290.519409,467.684631 289.156830,477.572601 287.428070,487.396118 
	C279.995056,529.632874 272.758392,571.908264 264.789886,614.044617 
	C261.961639,629.000061 257.662140,643.725647 253.167267,658.288574 
	C251.789856,662.751160 248.001068,666.821228 244.465668,670.173828 
	C240.374146,674.053711 236.600815,672.907959 234.107147,667.828308 
	C231.832748,663.195374 230.001007,658.339966 227.633408,653.758789 
	C220.209518,639.393616 201.287506,638.247375 192.297028,651.529785 
	C182.753860,665.628723 188.140747,685.656494 203.493027,692.844788 
	C215.282150,698.364807 227.778549,698.441040 240.203537,696.403137 
	C256.983643,693.650940 270.196594,683.900269 282.138428,672.568420 
	C304.958649,650.913879 315.369446,622.862671 322.288544,592.337097 
	C325.414398,575.904114 328.540253,559.471191 331.979248,542.563538 
	C331.982330,542.374023 331.985382,542.184570 332.214264,541.273926 
	C335.161072,524.848450 338.083649,508.418549 341.062347,491.998871 
	C343.425934,478.969788 345.858215,465.953156 349.163452,452.935516 
	C356.704559,452.948639 364.248535,453.076141 371.784698,452.889465 
	C373.532379,452.846191 375.253540,451.731201 377.707031,450.963287 
	C378.438446,450.914856 379.169830,450.866425 380.522980,451.254395 
	C383.678192,450.537262 386.833405,449.820129 390.623383,448.815094 
	C391.738342,448.522736 392.853302,448.230377 394.468964,448.226257 
	C395.640472,447.461853 396.811951,446.697479 398.126801,445.504852 
	C398.126801,445.504852 398.314575,445.094147 398.800201,444.929504 
	C399.237152,444.417816 399.674133,443.906097 400.613708,443.091309 
	C401.066071,442.725830 401.518463,442.360352 402.591339,441.715179 
	C403.648010,439.674316 404.704681,437.633453 405.977600,435.847565 
	C405.977600,435.847565 405.722260,436.063446 406.130798,435.446838 
	C406.410950,434.769836 406.691071,434.092804 406.619659,432.938232 
	C406.974548,432.044159 407.329407,431.150085 408.158936,429.716583 
	C408.373901,428.109772 408.588898,426.502960 408.599304,424.103607 
	C409.132996,419.058990 407.634003,415.890320 401.786407,416.518066 
	C400.885071,416.614777 399.926361,416.177307 398.179657,415.797058 
	C396.792480,415.849457 395.405334,415.901855 393.452301,415.821442 
	C392.296051,415.867126 391.139832,415.912811 389.061005,415.791748 
	C378.375763,415.857452 367.690521,415.923187 356.490082,415.916138 
	C356.322662,415.961487 356.155243,416.006805 355.421783,415.345245 
	C355.889038,412.237701 356.356323,409.130127 357.155640,405.315765 
	C359.942993,391.786255 362.431335,378.186249 365.601654,364.747070 
	C368.788849,351.236420 373.201080,338.093262 382.524384,327.335999 
	C392.137604,316.244171 399.908508,317.759735 405.094299,331.379791 
	C406.861877,336.022095 408.601044,340.810699 411.253998,344.955933 
	C420.553772,359.486694 441.051758,358.205536 448.756805,342.825562 
	C455.132538,330.099030 449.111023,312.796661 435.494171,305.957336 
	C435.331116,305.916656 435.168091,305.876007 435.038971,305.952759 
M772.023071,659.003235 
	C772.023071,659.003235 771.964600,658.830139 772.626343,658.859192 
	C773.066223,658.856445 773.506104,658.853699 774.508484,659.176514 
	C777.332214,658.164368 780.155945,657.152222 783.622559,655.783813 
	C809.375122,646.136780 825.257812,627.952820 831.254272,600.284241 
	C831.851196,597.254089 832.513306,594.234985 833.025452,591.190552 
	C833.480896,588.483704 833.770386,585.748962 834.732788,582.561218 
	C835.152893,580.687256 835.935974,578.814026 835.939514,576.939270 
	C836.011597,539.025513 836.012207,501.111420 835.945923,463.197571 
	C835.942322,461.111786 835.233093,459.027283 834.634766,456.080566 
	C834.460815,447.028870 834.286865,437.977173 834.280518,428.155518 
	C834.208801,427.114624 834.137085,426.073700 834.096863,424.168640 
	C833.707764,421.458649 833.318726,418.748688 832.927917,415.213684 
	C832.741394,414.064423 832.569824,412.912476 832.366089,411.766266 
	C827.667419,385.333649 814.298584,365.279266 789.589478,353.534180 
	C777.357544,347.719940 764.152222,346.122498 750.590027,344.022400 
	C749.080933,344.090393 747.571838,344.158356 745.244446,344.406799 
	C744.140442,344.317566 743.036499,344.228302 741.390320,343.710144 
	C737.281982,343.864807 733.173584,344.019440 728.232971,344.416504 
	C726.800476,344.342377 725.367981,344.268219 723.399719,343.737793 
	C722.287537,343.494476 721.175781,343.040924 720.063110,343.038818 
	C697.844849,342.996429 675.626343,342.975739 653.408447,343.073181 
	C651.913391,343.079712 650.422485,344.057892 648.770752,344.855408 
	C648.770752,344.855408 648.463257,344.920563 647.961243,345.459930 
	C647.645691,347.045776 647.059082,348.630981 647.055176,350.217590 
	C646.995239,374.783325 646.982788,399.349304 647.070923,423.914856 
	C647.076965,425.594147 647.967468,427.270264 648.890320,429.511292 
	C671.313110,454.740784 693.735901,479.970276 716.058228,505.086700 
	C715.826050,505.705139 715.782166,506.065552 715.588257,506.303894 
	C694.597290,532.114319 673.564209,557.890686 652.651489,583.764282 
	C650.966614,585.848938 650.103943,588.598083 648.765259,591.266113 
	C648.691772,591.505005 648.723816,591.737000 649.006287,592.850464 
	C649.081116,595.247986 649.155884,597.645447 649.140991,600.896667 
	C649.064087,602.609070 648.987244,604.321411 648.537659,606.684937 
	C648.665039,609.115479 648.792419,611.545959 649.090637,614.580750 
	C649.034424,616.061340 648.978149,617.541870 648.677734,619.395752 
	C648.758301,619.936951 648.838928,620.478210 649.030151,620.810425 
	C649.030151,620.810425 649.242126,620.915344 649.090820,621.733032 
	C649.141052,622.836853 649.191223,623.940674 649.151062,625.790283 
	C649.074402,626.534241 648.997681,627.278198 648.581055,628.535217 
	C648.693237,629.679077 648.805359,630.822998 649.089355,632.894531 
	C649.136230,640.914856 649.183105,648.935242 649.091370,657.646912 
	C649.138306,658.112305 649.185242,658.577637 649.134644,659.705933 
	C649.056335,660.143433 648.978027,660.580933 648.845642,661.268372 
	C648.813477,661.520935 648.858887,661.765381 649.329712,662.244507 
	C649.555298,662.417908 649.755066,662.617249 650.640442,663.292664 
	C651.601135,663.518005 652.561646,663.939636 653.522522,663.940369 
	C684.953735,663.965637 716.385864,664.060608 747.815247,663.815125 
	C752.213196,663.780762 756.597839,662.045898 761.607300,660.860718 
	C762.040466,660.833069 762.473572,660.805420 763.386230,661.157898 
	C764.585327,660.800964 765.784424,660.444031 767.616699,659.875671 
	C768.054993,659.856079 768.493286,659.836487 769.384033,660.171570 
	C770.271179,659.842529 771.158264,659.513489 772.023071,659.003235 
M453.513489,461.749146 
	C453.642639,472.156281 453.771820,482.563446 454.059357,493.825531 
	C454.007507,495.559601 453.955688,497.293701 453.659271,499.389893 
	C453.741608,499.917633 453.823944,500.445374 454.068512,501.826904 
	C454.015167,503.560028 453.961792,505.293152 453.525757,507.709869 
	C453.652008,510.796997 453.778259,513.884155 454.065002,517.825928 
	C454.010864,519.560364 453.956696,521.294800 453.563141,523.540344 
	C453.675659,524.683594 453.788208,525.826843 454.062408,527.884216 
	C454.008209,531.598999 453.954010,535.313843 453.656158,539.390198 
	C453.737427,539.917297 453.818695,540.444458 454.058960,541.855530 
	C454.005829,544.247131 453.952698,546.638733 453.520172,549.726440 
	C453.646484,553.140808 453.772797,556.555237 454.060883,560.898438 
	C454.008728,568.608643 453.956573,576.318909 453.548798,584.588501 
	C453.667236,586.049377 453.785675,587.510254 454.064911,589.880432 
	C454.011230,593.263367 453.957581,596.646301 453.513062,600.750183 
	C453.350800,601.561768 453.048737,602.372986 453.046936,603.184937 
	C453.012787,618.836243 452.992950,634.487732 453.046600,650.138916 
	C453.050995,651.417480 453.606537,652.694214 454.067078,654.804443 
	C454.012054,656.212219 453.957001,657.619995 453.592255,659.480042 
	C453.710358,660.314880 453.828430,661.149780 454.297943,662.273621 
	C454.531250,662.468323 454.750244,662.677979 455.671509,663.329529 
	C456.633026,663.536194 457.594116,663.920654 458.556152,663.923157 
	C474.617371,663.964539 490.678802,663.988342 506.739777,663.915833 
	C508.342224,663.908630 509.941711,663.251221 511.290924,662.128479 
	C511.415161,653.164062 511.539398,644.199585 512.049927,634.701477 
	C511.919647,633.724487 511.789337,632.747437 511.399323,630.893188 
	C511.373993,619.773865 511.292938,608.654236 511.337708,597.535217 
	C511.390442,584.436401 511.552155,571.338013 512.090332,557.653931 
	C511.948181,556.358215 511.806030,555.062500 511.404480,553.016113 
	C511.478912,551.706299 511.553345,550.396545 512.242737,548.875427 
	C512.824707,548.285950 513.406677,547.696472 514.659363,546.977905 
	C515.110291,547.023071 515.561157,547.068237 516.409851,547.757446 
	C517.284546,548.144226 518.155884,548.858215 519.034485,548.867249 
	C527.927856,548.959045 536.823303,548.997925 545.715393,548.864807 
	C546.813538,548.848389 547.895325,547.743225 549.654602,546.997498 
	C550.108826,547.020447 550.562988,547.043396 551.726440,547.465027 
	C559.442932,548.383423 567.013428,548.317383 574.622192,543.961609 
	C575.071228,543.954041 575.520264,543.946533 576.535889,544.303711 
	C579.356323,543.207581 582.176697,542.111511 585.531189,540.557129 
	C599.338135,534.584656 611.285034,526.346008 619.521729,512.543579 
	C627.126038,500.533295 629.799805,487.084900 630.145447,473.213867 
	C630.563843,456.422058 630.732910,439.593658 630.078857,422.817413 
	C629.715576,413.497437 627.456177,404.251404 625.994507,394.225220 
	C617.377930,368.071289 599.576416,352.079224 572.688782,346.305359 
	C568.162781,345.333435 563.485168,345.067169 558.408020,343.939301 
	C556.653381,343.626007 554.899292,343.042694 553.144104,343.039551 
	C522.329102,342.984344 491.513947,342.976105 460.699066,343.059296 
	C458.839874,343.064301 456.982971,343.920410 454.439453,345.015747 
	C454.259125,352.687653 454.078827,360.359558 453.514374,368.741211 
	C453.642975,372.817749 453.771576,376.894257 454.058014,381.865906 
	C454.003632,384.587830 453.949249,387.309723 453.523682,390.702911 
	C453.649109,393.458649 453.774536,396.214417 454.060699,399.898712 
	C454.007538,406.276001 453.954407,412.653320 453.562836,419.542694 
	C453.676636,420.685608 453.790436,421.828522 454.065002,423.880890 
	C454.010345,427.264221 453.955688,430.647552 453.548309,434.590973 
	C453.665680,436.050720 453.783051,437.510498 454.060425,439.803375 
	C454.008270,441.211853 453.956116,442.620300 453.542175,444.627502 
	C453.663635,446.409515 453.785126,448.191498 454.059601,450.652435 
	C454.008087,451.110687 453.956573,451.568939 453.549988,452.587463 
	C453.668182,454.048859 453.786377,455.510284 454.063324,457.774017 
	C454.010590,458.858887 453.957825,459.943756 453.513489,461.749146 
z"/>
<path fill="#000000" opacity="1.000000" stroke="none" 
	d="
M1.000003,544.468628 
	C1.657913,545.221863 2.834916,546.417725 2.897768,547.669434 
	C4.447290,578.530090 9.710205,608.826172 17.278751,638.700317 
	C24.610786,667.640869 34.575119,695.698792 46.901566,722.937317 
	C59.783985,751.404480 74.956734,778.575073 93.146683,803.924805 
	C104.374023,819.571472 116.619675,834.523560 128.984924,849.304993 
	C137.509644,859.495483 146.600403,869.298523 156.180328,878.502319 
	C176.227875,897.762634 197.602417,915.463074 220.469955,931.365234 
	C243.915268,947.669312 268.517731,961.927307 294.312164,974.103699 
	C329.077942,990.515198 365.164795,1003.310974 402.905731,1010.741638 
	C424.569122,1015.006775 446.467072,1019.064026 468.438293,1020.525635 
	C494.104797,1022.233154 519.980896,1021.579529 545.739380,1020.915283 
	C577.968933,1020.084167 609.543152,1014.091492 640.681580,1006.013672 
	C684.279907,994.703491 725.549683,977.655518 764.684937,955.298767 
	C792.679016,939.306824 819.161072,921.100525 843.232849,899.783569 
	C860.741943,884.278381 876.957397,867.250183 893.113586,850.294983 
	C914.322144,828.037598 931.776611,802.836670 947.788147,776.682678 
	C965.224609,748.201172 979.517517,718.151062 990.909058,686.749390 
	C1002.239929,655.514587 1010.563599,623.471741 1015.509155,590.625122 
	C1017.609009,576.678101 1019.169617,562.586304 1019.856140,548.505676 
	C1020.796021,529.230347 1021.317688,509.887482 1020.855408,490.601440 
	C1020.068176,457.760529 1015.252258,425.384613 1007.656189,393.404449 
	C997.945984,352.523773 983.433960,313.440216 964.045410,276.196930 
	C947.934814,245.250336 929.098511,216.007187 906.627991,189.293518 
	C894.116150,174.418961 881.180908,159.797455 867.362183,146.149673 
	C847.351990,126.386993 825.542419,108.647575 802.404724,92.545319 
	C778.548950,75.943291 753.489075,61.462757 727.201660,49.172573 
	C692.843994,33.109306 657.206726,20.503946 619.943848,13.227948 
	C598.435242,9.028149 576.615784,6.416796 554.929993,3.131573 
	C551.082703,2.548752 547.204956,2.167831 543.170654,1.346839 
	C703.643372,1.000000 864.286682,1.000000 1024.965088,1.000000 
	C1024.965088,342.260529 1024.965088,683.521057 1024.965088,1024.890869 
	C683.789001,1024.890869 342.577942,1024.890869 1.000000,1024.890869 
	C1.000000,864.979309 1.000000,704.958313 1.000003,544.468628 
z"/>
<path fill="#000000" opacity="1.000000" stroke="none" 
	d="
M479.531342,1.000000 
	C478.612091,1.662563 477.251312,2.837369 475.832336,2.912464 
	C443.822174,4.606446 412.403442,10.079419 381.465363,18.183498 
	C338.086792,29.546301 296.984344,46.538704 258.041840,68.854630 
	C232.411148,83.542236 208.179764,100.235832 185.615738,119.206306 
	C171.380356,131.174530 157.493439,143.713654 144.635849,157.132721 
	C114.966103,188.098190 89.334343,222.169708 68.079468,259.555511 
	C45.719746,298.884705 28.921312,340.407074 17.592728,384.115875 
	C10.787883,410.370819 5.812209,437.010834 3.891201,464.149139 
	C3.523396,469.345154 2.444014,474.490845 1.346461,479.829865 
	C1.000000,320.406250 1.000000,160.812500 1.000000,1.000000 
	C160.354156,1.000000 319.708435,1.000000 479.531342,1.000000 
z"/>
<path fill="#0885CF" opacity="1.000000" stroke="none" 
	d="
M723.935486,344.194092 
	C725.367981,344.268219 726.800476,344.342377 729.099243,344.387207 
	C733.954529,344.284973 737.943481,344.212006 741.932495,344.139038 
	C743.036499,344.228302 744.140442,344.317566 746.041504,344.457581 
	C748.209473,344.497467 749.580383,344.486572 750.951233,344.475708 
	C764.152222,346.122498 777.357544,347.719940 789.589478,353.534180 
	C814.298584,365.279266 827.667419,385.333649 832.366089,411.766266 
	C832.569824,412.912476 832.741394,414.064423 832.734253,415.953247 
	C833.048889,419.472778 833.557129,422.252808 834.065369,425.032806 
	C834.137085,426.073700 834.208801,427.114624 833.966064,428.892456 
	C833.434631,435.717682 833.048035,441.806519 833.067139,447.894104 
	C833.077820,451.286896 833.763550,454.677582 834.232422,458.380554 
	C834.245300,459.110809 834.170776,459.529785 833.876099,460.304749 
	C833.431580,462.791077 833.014526,464.921143 833.011902,467.051697 
	C832.970520,500.682281 833.082825,534.313477 832.904480,567.943115 
	C832.864929,575.393372 831.784729,582.834778 831.296753,590.287598 
	C831.063416,593.850403 831.094421,597.430420 831.005676,601.002686 
	C825.257812,627.952820 809.375122,646.136780 782.957642,655.990112 
	C781.192017,656.455017 780.091187,656.713684 778.798096,656.976929 
	C778.216736,656.992065 777.827698,657.002502 777.490723,656.989685 
	C777.542786,656.966492 777.589783,657.070435 777.179077,657.068542 
	C775.167175,657.654480 773.565918,658.242310 771.964600,658.830139 
	C771.964600,658.830139 772.023071,659.003235 771.701294,659.074829 
	C770.936951,659.136902 770.494385,659.127502 769.749023,658.914368 
	C766.305603,659.431519 763.164978,660.152405 759.692566,660.957642 
	C758.907349,661.028015 758.453857,661.014038 757.680054,660.795654 
	C754.916626,661.006348 752.473511,661.421509 749.609131,661.921143 
	C747.471985,662.054443 745.755981,662.103210 743.691528,661.920593 
	C741.220459,661.459351 739.098083,661.033081 736.975037,661.029480 
	C710.403992,660.984924 683.832642,661.057373 657.262268,660.916870 
	C654.582336,660.902710 651.908691,659.696228 649.232117,659.043030 
	C649.185242,658.577637 649.138306,658.112305 649.464233,657.088379 
	C649.764526,647.811768 649.691956,639.093689 649.913574,630.387573 
	C650.258057,630.519287 650.380371,630.670837 650.344299,630.752563 
	C650.258362,630.947510 650.097717,631.109497 650.222046,630.848267 
	C650.065125,628.622620 649.653259,626.833557 649.241394,625.044495 
	C649.191223,623.940674 649.141052,622.836853 649.453369,621.135620 
	C649.608765,618.036011 649.401611,615.533813 649.108521,612.653748 
	C649.076538,611.507080 649.130371,610.738281 649.481323,609.765564 
	C649.595886,606.388733 649.413330,603.215881 649.230713,600.042969 
	C649.155884,597.645447 649.081116,595.247986 648.969116,592.175293 
	C648.931946,591.500061 648.859131,591.038452 648.859131,591.038452 
	C650.103943,588.598083 650.966614,585.848938 652.651489,583.764282 
	C673.564209,557.890686 694.597290,532.114319 715.588257,506.303894 
	C715.782166,506.065552 715.826050,505.705139 716.058228,505.086700 
	C693.735901,479.970276 671.313110,454.740784 648.675720,428.764587 
	C648.461792,400.318787 648.462524,372.619659 648.463257,344.920563 
	C648.463257,344.920563 648.770752,344.855408 649.323120,344.709137 
	C664.130798,344.568359 678.386353,344.623352 692.641418,344.562866 
	C703.073120,344.518616 713.504150,344.322540 723.935486,344.194092 
M705.417542,394.444855 
	C704.950989,395.946228 704.089355,397.444946 704.079224,398.949463 
	C703.979309,413.681366 703.966248,428.414795 704.101685,443.146149 
	C704.116516,444.753601 705.219360,446.351044 706.372498,448.358490 
	C723.502991,467.383057 740.633545,486.407654 758.068298,505.770172 
	C740.463013,527.149048 723.231628,548.073792 705.338562,569.390503 
	C704.905518,570.419434 704.103394,571.445557 704.095764,572.477661 
	C704.007751,584.434631 703.980286,596.393311 704.130981,608.349060 
	C704.146301,609.562683 705.425842,610.760437 707.016907,612.200928 
	C718.822083,611.907715 730.703369,612.355225 742.414917,611.151245 
	C760.943542,609.246399 771.335144,599.457214 774.668335,582.261047 
	C775.517761,577.878723 775.791199,573.384827 776.905029,568.486755 
	C777.262268,566.751770 777.928833,565.017212 777.931335,563.281738 
	C777.988708,523.006653 777.995544,482.731476 777.901672,442.456543 
	C777.897522,440.654297 776.857544,438.854492 776.079346,436.513763 
	C776.013062,436.331024 775.946777,436.148315 775.970642,435.136078 
	C775.619629,432.101868 775.268616,429.067688 774.953857,425.244781 
	C774.338989,422.742950 773.670654,420.252899 773.118958,417.737213 
	C771.079651,408.438599 761.995483,399.644318 752.162842,397.234863 
	C748.783203,396.548798 745.403564,395.862732 741.349487,395.007111 
	C740.889404,395.039062 740.429382,395.071014 739.156921,394.994293 
	C736.111145,394.708130 733.065308,394.421967 729.219604,393.978210 
	C728.136719,394.017456 727.053833,394.056732 725.042908,393.993256 
	C718.714844,394.001099 712.386719,394.008942 705.417542,394.444855 
M650.520508,596.498230 
	C650.520508,596.498230 650.484558,596.511841 650.520508,596.498230 
z"/>
<path fill="#0884CF" opacity="1.000000" stroke="none" 
	d="
M575.969299,543.938965 
	C575.520264,543.946533 575.071228,543.954041 574.052979,544.023682 
	C573.321533,544.047180 573.159180,544.008728 572.684204,543.778381 
	C566.112549,544.054932 559.858643,544.821472 553.593445,544.929016 
	C540.938171,545.146423 528.276550,545.032349 515.617737,544.994629 
	C512.393127,544.985046 510.004181,545.698181 509.999451,549.594238 
	C509.988770,558.408386 509.892975,567.222412 509.868073,576.036560 
	C509.820251,592.973267 509.850464,609.910339 509.744049,626.846619 
	C509.683746,636.442017 508.919159,646.064026 509.455292,655.618835 
	C509.717407,660.290344 508.307587,661.044006 504.392731,661.014954 
	C490.235443,660.909973 476.074402,660.827026 461.920166,661.060974 
	C457.258667,661.138000 455.929779,659.422058 455.934509,654.936584 
	C456.043335,551.999207 456.040405,449.061737 456.520874,346.098633 
	C488.731720,346.060028 520.479980,346.067841 552.228027,345.990326 
	C554.486572,345.984802 556.743469,345.352539 558.905334,344.892426 
	C558.809509,344.773163 558.877625,344.474854 558.877625,344.474854 
	C563.485168,345.067169 568.162781,345.333435 572.688782,346.305359 
	C599.576416,352.079224 617.377930,368.071289 625.818359,394.904205 
	C625.698608,397.198181 625.681213,398.819702 625.824158,400.427002 
	C626.526917,408.332428 627.754456,416.225006 627.903198,424.138885 
	C628.224426,441.228455 628.192688,458.331299 627.930969,475.422943 
	C627.754089,486.976746 625.065369,498.055908 620.003601,508.523254 
	C619.355347,509.863861 619.363037,511.521698 619.066772,513.032593 
	C611.285034,526.346008 599.338135,534.584656 584.893921,540.827026 
	C581.494202,542.044312 578.731750,542.991638 575.969299,543.938965 
M574.036926,441.077484 
	C573.999084,438.062836 573.961304,435.048218 574.070801,431.277191 
	C574.012573,430.512848 573.954346,429.748535 573.944519,428.136627 
	C573.304443,424.729156 572.664307,421.321716 571.991394,417.440338 
	C571.991394,417.440338 571.926331,416.969818 572.165649,416.445435 
	C571.807068,414.946533 571.448547,413.447601 571.056641,411.226562 
	C567.759521,402.092377 560.336792,397.340424 551.590698,396.286011 
	C538.215759,394.673584 524.643616,394.695984 510.700775,394.717926 
	C510.464233,396.174530 510.023102,397.630859 510.021271,399.087738 
	C509.981750,430.351929 509.977264,461.616211 510.041382,492.880310 
	C510.044037,494.181274 510.776550,495.480743 511.897980,496.968109 
	C512.626221,497.148132 513.354492,497.328156 514.561462,498.046112 
	C522.562561,498.220703 530.563416,498.418274 538.565430,498.510162 
	C539.023254,498.515411 539.491028,497.657959 540.793396,496.919434 
	C544.049561,496.491119 547.343750,496.249603 550.554260,495.596802 
	C557.897034,494.103760 564.933289,491.954041 569.496094,484.530670 
	C569.711060,484.029327 569.926025,483.527985 570.601257,482.667633 
	C570.736572,482.113129 570.871887,481.558624 571.404236,480.373657 
	C572.221375,475.256165 573.038574,470.138672 574.019897,464.098572 
	C573.989929,459.391235 573.959961,454.683868 574.039490,449.132141 
	C574.002625,447.431305 573.965759,445.730499 574.070923,443.349854 
	C574.023682,442.891754 573.976379,442.433624 574.036926,441.077484 
z"/>
<path fill="#0885D0" opacity="1.000000" stroke="none" 
	d="
M322.024353,593.011047 
	C315.369446,622.862671 304.958649,650.913879 282.138428,672.568420 
	C270.196594,683.900269 256.983643,693.650940 240.203537,696.403137 
	C227.778549,698.441040 215.282150,698.364807 203.493027,692.844788 
	C188.140747,685.656494 182.753860,665.628723 192.297028,651.529785 
	C201.287506,638.247375 220.209518,639.393616 227.633408,653.758789 
	C230.001007,658.339966 231.832748,663.195374 234.107147,667.828308 
	C236.600815,672.907959 240.374146,674.053711 244.465668,670.173828 
	C248.001068,666.821228 251.789856,662.751160 253.167267,658.288574 
	C257.662140,643.725647 261.961639,629.000061 264.789886,614.044617 
	C272.758392,571.908264 279.995056,529.632874 287.428070,487.396118 
	C289.156830,477.572601 290.519409,467.684631 292.069885,457.161194 
	C292.069885,456.327026 292.050537,456.158020 292.031158,455.988983 
	C292.314697,455.197662 292.598236,454.406311 292.929443,452.950409 
	C292.323853,451.906128 291.670532,451.526459 291.017242,451.146729 
	C289.290710,451.101410 287.564178,451.056061 284.944885,451.032166 
	C278.040192,451.082001 272.028229,451.110352 266.016296,451.138702 
	C265.254974,451.082764 264.493622,451.026794 262.957886,450.972351 
	C261.117584,450.970367 260.051666,450.966858 258.985748,450.963318 
	C258.985748,450.963318 258.790100,450.814056 258.406982,450.609253 
	C257.034973,450.175995 256.046082,449.947510 255.057205,449.719055 
	C254.568527,447.073212 253.282410,444.286621 253.720612,441.804413 
	C256.560211,425.720123 266.945770,416.731262 283.231842,415.911072 
	C287.720490,415.684998 292.236938,415.576385 296.719818,415.811188 
	C300.101898,415.988342 301.438507,414.943176 302.507050,411.504517 
	C307.828094,394.381500 312.551727,376.957428 319.482025,360.478943 
	C328.169098,339.823303 342.661133,323.240234 361.548737,310.881622 
	C372.331360,303.826324 384.397491,300.242157 397.951843,299.195801 
	C402.483398,299.791534 406.273499,299.920197 409.979889,300.545135 
	C417.737030,301.853088 425.450073,303.422455 433.181244,304.884491 
	C433.181244,304.884491 433.041718,304.958984 433.245789,305.088196 
	C434.018585,305.450989 434.587341,305.684509 435.156128,305.918030 
	C435.156128,305.918030 435.038971,305.952759 435.129578,305.982178 
	C435.220215,306.011566 435.581879,306.161774 435.581879,306.161774 
	C435.581879,306.161774 435.976746,306.103088 435.976746,306.103088 
	C449.111023,312.796661 455.132538,330.099030 448.756805,342.825562 
	C441.051758,358.205536 420.553772,359.486694 411.253998,344.955933 
	C408.601044,340.810699 406.861877,336.022095 405.094299,331.379791 
	C399.908508,317.759735 392.137604,316.244171 382.524384,327.335999 
	C373.201080,338.093262 368.788849,351.236420 365.601654,364.747070 
	C362.431335,378.186249 359.942993,391.786255 356.696594,405.835754 
	C354.401245,409.860962 352.211029,413.358795 356.199158,416.834351 
	C356.601746,416.465759 356.809723,416.232880 357.005280,415.988922 
	C367.690521,415.923187 378.375763,415.857452 389.650391,416.166443 
	C391.499237,416.345551 392.758698,416.149902 394.018158,415.954254 
	C395.405334,415.901855 396.792480,415.849457 398.761292,416.213959 
	C400.023346,417.045135 400.654816,417.666199 401.391998,417.840851 
	C407.016846,419.173279 407.696442,420.175018 406.503418,425.881775 
	C405.766968,429.404602 404.968903,432.914612 404.252960,436.564972 
	C404.307434,436.699585 404.152863,436.945496 403.955261,437.156494 
	C403.514282,437.665283 403.270935,437.963135 403.049988,438.108551 
	C403.072449,437.956146 403.377228,438.001251 403.159119,438.259216 
	C402.731293,439.143005 402.521606,439.768860 402.310242,440.295166 
	C402.308594,440.195618 402.507721,440.197205 402.172394,440.337067 
	C401.261749,441.449432 400.686432,442.421936 400.111084,443.394409 
	C399.674133,443.906097 399.237152,444.417816 398.225830,445.122681 
	C397.105103,445.744904 396.558746,446.173950 395.869995,446.770233 
	C395.304810,447.023926 394.882050,447.110382 394.016541,447.165222 
	C390.385590,448.049500 387.197327,448.965424 383.683685,449.978516 
	C382.909363,450.085999 382.460480,450.096313 381.661224,449.883179 
	C371.290375,449.465576 361.269897,449.192688 351.249359,449.190247 
	C350.161713,449.189972 349.073669,450.752747 348.081604,451.671082 
	C348.266327,452.029327 348.200195,452.248413 347.661194,452.709595 
	C346.581329,454.806641 345.453827,456.536499 345.112610,458.409546 
	C340.776428,482.213959 336.471771,506.024963 332.381866,529.872559 
	C331.704926,533.819763 332.092712,537.949585 331.988464,541.995056 
	C331.985382,542.184570 331.982330,542.374023 331.541382,542.990356 
	C330.617920,544.434753 329.893280,545.405334 329.682983,546.476868 
	C326.854065,560.888794 324.071014,575.309937 321.377075,589.747559 
	C321.188202,590.759888 321.790161,591.919800 322.024353,593.011047 
z"/>
<path fill="#0790DD" opacity="1.000000" stroke="none" 
	d="
M456.058289,346.124298 
	C456.040405,449.061737 456.043335,551.999207 455.934509,654.936584 
	C455.929779,659.422058 457.258667,661.138000 461.920166,661.060974 
	C476.074402,660.827026 490.235443,660.909973 504.392731,661.014954 
	C508.307587,661.044006 509.717407,660.290344 509.455292,655.618835 
	C508.919159,646.064026 509.683746,636.442017 509.744049,626.846619 
	C509.850464,609.910339 509.820251,592.973267 509.868073,576.036560 
	C509.892975,567.222412 509.988770,558.408386 509.999451,549.594238 
	C510.004181,545.698181 512.393127,544.985046 515.617737,544.994629 
	C528.276550,545.032349 540.938171,545.146423 553.593445,544.929016 
	C559.858643,544.821472 566.112549,544.054932 572.318359,543.928589 
	C565.182556,545.202515 558.099915,546.134460 551.017212,547.066284 
	C550.562988,547.043396 550.108826,547.020447 548.854553,547.016174 
	C537.373718,547.061035 526.692871,547.087219 516.012085,547.113403 
	C515.561157,547.068237 515.110291,547.023071 513.923035,546.998901 
	C512.667053,547.708862 512.147400,548.397766 511.627777,549.086731 
	C511.553345,550.396545 511.478912,551.706299 511.430939,553.832886 
	C511.527130,555.846191 511.596893,557.042847 511.666626,558.239441 
	C511.552155,571.338013 511.390442,584.436401 511.337708,597.535217 
	C511.292938,608.654236 511.373993,619.773865 511.427612,631.760010 
	C511.525177,633.496216 511.594391,634.365723 511.663605,635.235168 
	C511.539398,644.199585 511.415161,653.164062 510.882324,662.470398 
	C491.967468,662.842407 473.461212,662.872498 454.954956,662.902588 
	C454.750244,662.677979 454.531250,662.468323 454.138214,661.881958 
	C453.952972,660.669495 453.927460,659.848633 453.901947,659.027771 
	C453.957001,657.619995 454.012054,656.212219 454.040161,653.923950 
	C453.976776,635.372009 453.940308,617.700623 453.903870,600.029236 
	C453.957581,596.646301 454.011230,593.263367 454.037354,589.016113 
	C453.974670,586.777588 453.939575,585.403381 453.904419,584.029114 
	C453.956573,576.318909 454.008728,568.608643 454.031464,559.980835 
	C453.967865,555.718872 453.933685,552.374634 453.899536,549.030334 
	C453.952698,546.638733 454.005829,544.247131 454.029846,541.091003 
	C453.967133,539.893860 453.933472,539.461243 453.899841,539.028625 
	C453.954010,535.313843 454.008209,531.598999 454.034454,527.035156 
	C453.971832,525.133789 453.937164,524.081482 453.902527,523.029236 
	C453.956696,521.294800 454.010864,519.560364 454.037628,516.949524 
	C453.976318,513.057495 453.942383,510.041901 453.908417,507.026276 
	C453.961792,505.293152 454.015167,503.560028 454.037689,501.077026 
	C453.972534,499.894043 453.938202,499.460907 453.903870,499.027771 
	C453.955688,497.293701 454.007507,495.559601 454.033569,492.933868 
	C453.973541,481.704346 453.939301,471.366486 453.905090,461.028625 
	C453.957825,459.943756 454.010590,458.858887 454.036163,456.962952 
	C453.974335,454.776978 453.939697,453.402100 453.905060,452.027191 
	C453.956573,451.568939 454.008087,451.110687 454.036346,449.890717 
	C453.976715,447.428925 453.940308,445.728851 453.903931,444.028778 
	C453.956116,442.620300 454.008270,441.211853 454.032837,438.977356 
	C453.970551,436.777832 453.935791,435.404358 453.901031,434.030884 
	C453.955688,430.647552 454.010345,427.264221 454.036682,423.033997 
	C453.972656,421.134949 453.936951,420.082764 453.901245,419.030609 
	C453.954407,412.653320 454.007538,406.276001 454.032990,398.989929 
	C453.968475,395.397980 453.931671,392.714813 453.894897,390.031647 
	C453.949249,387.309723 454.003632,384.587830 454.032532,380.959900 
	C453.970856,376.046417 453.934692,372.038940 453.898499,368.031464 
	C454.078827,360.359558 454.259125,352.687653 454.776001,344.833374 
	C455.112518,344.651031 455.027924,344.908295 455.183655,345.123505 
	C455.579041,345.600586 455.818665,345.862427 456.058289,346.124298 
z"/>
<path fill="#0790DD" opacity="1.000000" stroke="none" 
	d="
M619.294250,512.788086 
	C619.363037,511.521698 619.355347,509.863861 620.003601,508.523254 
	C625.065369,498.055908 627.754089,486.976746 627.930969,475.422943 
	C628.192688,458.331299 628.224426,441.228455 627.903198,424.138885 
	C627.754456,416.225006 626.526917,408.332428 625.824158,400.427002 
	C625.681213,398.819702 625.698608,397.198181 625.846802,395.277588 
	C627.456177,404.251404 629.715576,413.497437 630.078857,422.817413 
	C630.732910,439.593658 630.563843,456.422058 630.145447,473.213867 
	C629.799805,487.084900 627.126038,500.533295 619.294250,512.788086 
z"/>
<path fill="#030816" opacity="1.000000" stroke="none" 
	d="
M834.096191,459.948730 
	C834.170776,459.529785 834.245300,459.110809 834.351013,458.190765 
	C834.456909,457.388947 834.613586,457.139771 834.852234,456.942169 
	C835.233093,459.027283 835.942322,461.111786 835.945923,463.197571 
	C836.012207,501.111420 836.011597,539.025513 835.939514,576.939270 
	C835.935974,578.814026 835.152893,580.687256 834.472900,582.324951 
	C834.250122,561.978943 834.331787,541.869202 834.312012,521.759583 
	C834.291748,501.155945 834.172302,480.552338 834.096191,459.948730 
z"/>
<path fill="#030816" opacity="1.000000" stroke="none" 
	d="
M455.118774,344.515747 
	C456.982971,343.920410 458.839874,343.064301 460.699066,343.059296 
	C491.513947,342.976105 522.329102,342.984344 553.144104,343.039551 
	C554.899292,343.042694 556.653381,343.626007 558.642822,344.207092 
	C558.877625,344.474854 558.809509,344.773163 558.452148,344.763184 
	C541.661072,344.731323 525.227234,344.671539 508.793579,344.697754 
	C490.871613,344.726379 472.949799,344.834717 455.027924,344.908295 
	C455.027924,344.908295 455.112518,344.651031 455.118774,344.515747 
z"/>
<path fill="#0790DD" opacity="1.000000" stroke="none" 
	d="
M332.101379,541.634521 
	C332.092712,537.949585 331.704926,533.819763 332.381866,529.872559 
	C336.471771,506.024963 340.776428,482.213959 345.112610,458.409546 
	C345.453827,456.536499 346.581329,454.806641 347.737305,452.836945 
	C348.131226,452.663635 348.259979,452.931000 348.259979,452.931000 
	C345.858215,465.953156 343.425934,478.969788 341.062347,491.998871 
	C338.083649,508.418549 335.161072,524.848450 332.101379,541.634521 
z"/>
<path fill="#079CED" opacity="1.000000" stroke="none" 
	d="
M649.183350,659.374512 
	C651.908691,659.696228 654.582336,660.902710 657.262268,660.916870 
	C683.832642,661.057373 710.403992,660.984924 736.975037,661.029480 
	C739.098083,661.033081 741.220459,661.459351 743.307190,662.089478 
	C727.295593,662.512390 711.319763,662.506409 695.344299,662.565979 
	C680.205750,662.622437 665.067505,662.747498 649.929138,662.842407 
	C649.755066,662.617249 649.555298,662.417908 649.161743,661.875000 
	C648.993774,661.505432 648.899780,661.018433 648.899780,661.018433 
	C648.978027,660.580933 649.056335,660.143433 649.183350,659.374512 
z"/>
<path fill="#030816" opacity="1.000000" stroke="none" 
	d="
M648.212280,345.190247 
	C648.462524,372.619659 648.461792,400.318787 648.453857,428.482880 
	C647.967468,427.270264 647.076965,425.594147 647.070923,423.914856 
	C646.982788,399.349304 646.995239,374.783325 647.055176,350.217590 
	C647.059082,348.630981 647.645691,347.045776 648.212280,345.190247 
z"/>
<path fill="#079CED" opacity="1.000000" stroke="none" 
	d="
M833.876038,460.304749 
	C834.172302,480.552338 834.291748,501.155945 834.312012,521.759583 
	C834.331787,541.869202 834.250122,561.978943 834.173035,582.557556 
	C833.770386,585.748962 833.480896,588.483704 833.025452,591.190552 
	C832.513306,594.234985 831.851196,597.254089 831.130005,600.643433 
	C831.094421,597.430420 831.063416,593.850403 831.296753,590.287598 
	C831.784729,582.834778 832.864929,575.393372 832.904480,567.943115 
	C833.082825,534.313477 832.970520,500.682281 833.011902,467.051697 
	C833.014526,464.921143 833.431580,462.791077 833.876038,460.304749 
z"/>
<path fill="#030816" opacity="1.000000" stroke="none" 
	d="
M723.667603,343.965942 
	C713.504150,344.322540 703.073120,344.518616 692.641418,344.562866 
	C678.386353,344.623352 664.130798,344.568359 649.402588,344.573517 
	C650.422485,344.057892 651.913391,343.079712 653.408447,343.073181 
	C675.626343,342.975739 697.844849,342.996429 720.063110,343.038818 
	C721.175781,343.040924 722.287537,343.494476 723.667603,343.965942 
z"/>
<path fill="#030816" opacity="1.000000" stroke="none" 
	d="
M650.284790,663.067505 
	C665.067505,662.747498 680.205750,662.622437 695.344299,662.565979 
	C711.319763,662.506409 727.295593,662.512390 743.655640,662.320923 
	C745.755981,662.103210 747.471985,662.054443 750.015259,661.957214 
	C753.228455,661.605896 755.614380,661.302917 758.000366,661.000000 
	C758.453857,661.014038 758.907349,661.028015 759.933472,661.014832 
	C760.506042,660.987671 760.988708,661.098267 760.988708,661.098267 
	C756.597839,662.045898 752.213196,663.780762 747.815247,663.815125 
	C716.385864,664.060608 684.953735,663.965637 653.522522,663.940369 
	C652.561646,663.939636 651.601135,663.518005 650.284790,663.067505 
z"/>
<path fill="#0790DD" opacity="1.000000" stroke="none" 
	d="
M322.156433,592.674072 
	C321.790161,591.919800 321.188202,590.759888 321.377075,589.747559 
	C324.071014,575.309937 326.854065,560.888794 329.682983,546.476868 
	C329.893280,545.405334 330.617920,544.434753 331.384796,543.227722 
	C328.540253,559.471191 325.414398,575.904114 322.156433,592.674072 
z"/>
<path fill="#0790DD" opacity="1.000000" stroke="none" 
	d="
M433.020264,304.582458 
	C425.450073,303.422455 417.737030,301.853088 409.979889,300.545135 
	C406.273499,299.920197 402.483398,299.791534 398.375977,299.239441 
	C410.047119,298.037842 421.852570,298.503815 433.020264,304.582458 
z"/>
<path fill="#0790DD" opacity="1.000000" stroke="none" 
	d="
M347.985779,451.590454 
	C349.073669,450.752747 350.161713,449.189972 351.249359,449.190247 
	C361.269897,449.192688 371.290375,449.465576 381.401947,449.992615 
	C380.962433,450.489685 380.431854,450.653839 379.901245,450.817993 
	C379.169830,450.866425 378.438446,450.914856 376.881622,450.984253 
	C366.699402,451.200287 357.342590,451.395355 347.985779,451.590454 
z"/>
<path fill="#030816" opacity="1.000000" stroke="none" 
	d="
M516.210938,547.435425 
	C526.692871,547.087219 537.373718,547.061035 548.519592,547.088745 
	C547.895325,547.743225 546.813538,548.848389 545.715393,548.864807 
	C536.823303,548.997925 527.927856,548.959045 519.034485,548.867249 
	C518.155884,548.858215 517.284546,548.144226 516.210938,547.435425 
z"/>
<path fill="#030816" opacity="1.000000" stroke="none" 
	d="
M348.081573,451.671082 
	C357.342590,451.395355 366.699402,451.200287 376.521545,451.057312 
	C375.253540,451.731201 373.532379,452.846191 371.784698,452.889465 
	C364.248535,453.076141 356.704559,452.948639 348.711731,452.933258 
	C348.259979,452.931000 348.131226,452.663635 348.055115,452.536285 
	C348.200195,452.248413 348.266327,452.029327 348.081573,451.671082 
z"/>
<path fill="#0790DD" opacity="1.000000" stroke="none" 
	d="
M404.198486,436.430359 
	C404.968903,432.914612 405.766968,429.404602 406.503418,425.881775 
	C407.696442,420.175018 407.016846,419.173279 401.391998,417.840851 
	C400.654816,417.666199 400.023346,417.045135 399.168579,416.308868 
	C399.926361,416.177307 400.885071,416.614777 401.786407,416.518066 
	C407.634003,415.890320 409.132996,419.058990 408.542877,424.852264 
	C408.219055,427.152618 407.951691,428.704315 407.684326,430.256012 
	C407.329407,431.150085 406.974548,432.044159 406.469727,433.394897 
	C406.120636,434.588837 405.921448,435.326141 405.722260,436.063446 
	C405.722260,436.063446 405.977600,435.847565 405.606476,435.859070 
	C404.889740,436.057159 404.544128,436.243774 404.198486,436.430359 
z"/>
<path fill="#04040B" opacity="1.000000" stroke="none" 
	d="
M455.313232,663.116089 
	C473.461212,662.872498 491.967468,662.842407 511.008148,662.854004 
	C509.941711,663.251221 508.342224,663.908630 506.739777,663.915833 
	C490.678802,663.988342 474.617371,663.964539 458.556152,663.923157 
	C457.594116,663.920654 456.633026,663.536194 455.313232,663.116089 
z"/>
<path fill="#04040B" opacity="1.000000" stroke="none" 
	d="
M453.708466,600.389709 
	C453.940308,617.700623 453.976776,635.372009 453.959625,653.507568 
	C453.606537,652.694214 453.050995,651.417480 453.046600,650.138916 
	C452.992950,634.487732 453.012787,618.836243 453.046936,603.184937 
	C453.048737,602.372986 453.350800,601.561768 453.708466,600.389709 
z"/>
<path fill="#079CED" opacity="1.000000" stroke="none" 
	d="
M649.619385,630.375671 
	C649.691956,639.093689 649.764526,647.811768 649.533569,656.742676 
	C649.183105,648.935242 649.136230,640.914856 649.078369,632.150513 
	C649.251404,631.062866 649.435364,630.719238 649.619385,630.375671 
z"/>
<path fill="#030816" opacity="1.000000" stroke="none" 
	d="
M266.217468,451.457947 
	C272.028229,451.110352 278.040192,451.082001 284.517517,451.098511 
	C278.899109,454.409332 272.671204,453.454742 266.217468,451.457947 
z"/>
<path fill="#079CED" opacity="1.000000" stroke="none" 
	d="
M834.743530,456.511353 
	C834.613586,457.139771 834.456909,457.388947 834.263672,457.879456 
	C833.763550,454.677582 833.077820,451.286896 833.067139,447.894104 
	C833.048035,441.806519 833.434631,435.717682 833.882324,429.277405 
	C834.286865,437.977173 834.460815,447.028870 834.743530,456.511353 
z"/>
<path fill="#04040B" opacity="1.000000" stroke="none" 
	d="
M453.709290,461.388885 
	C453.939301,471.366486 453.973541,481.704346 453.954376,492.506409 
	C453.771820,482.563446 453.642639,472.156281 453.709290,461.388885 
z"/>
<path fill="#030816" opacity="1.000000" stroke="none" 
	d="
M551.371826,547.265686 
	C558.099915,546.134460 565.182556,545.202515 572.631104,544.120361 
	C573.159180,544.008728 573.321533,544.047180 573.730835,544.125366 
	C567.013428,548.317383 559.442932,548.383423 551.371826,547.265686 
z"/>
<path fill="#030816" opacity="1.000000" stroke="none" 
	d="
M741.661377,343.924561 
	C737.943481,344.212006 733.954529,344.284973 729.515381,344.266022 
	C733.173584,344.019440 737.281982,343.864807 741.661377,343.924561 
z"/>
<path fill="#0790DD" opacity="1.000000" stroke="none" 
	d="
M356.016937,416.981171 
	C352.211029,413.358795 354.401245,409.860962 356.530579,406.189148 
	C356.356323,409.130127 355.889038,412.237701 355.712921,415.930908 
	C356.004059,416.516571 356.016937,416.981171 356.016937,416.981171 
z"/>
<path fill="#079CED" opacity="1.000000" stroke="none" 
	d="
M649.185852,600.469849 
	C649.413330,603.215881 649.595886,606.388733 649.424622,609.374390 
	C649.017273,608.136047 648.963806,607.084961 648.910400,606.033813 
	C648.987244,604.321411 649.064087,602.609070 649.185852,600.469849 
z"/>
<path fill="#079CED" opacity="1.000000" stroke="none" 
	d="
M761.297974,660.979492 
	C760.988708,661.098267 760.506042,660.987671 760.265137,660.930481 
	C763.164978,660.152405 766.305603,659.431519 769.575256,659.051086 
	C769.425049,659.494141 769.167542,659.635925 768.931580,659.816956 
	C768.493286,659.836487 768.054993,659.856079 766.952759,659.934082 
	C765.161499,660.254272 764.034119,660.516052 762.906738,660.777832 
	C762.473572,660.805420 762.040466,660.833069 761.297974,660.979492 
z"/>
<path fill="#030816" opacity="1.000000" stroke="none" 
	d="
M380.212097,451.036194 
	C380.431854,450.653839 380.962433,450.489685 381.752289,450.216064 
	C382.460480,450.096313 382.909363,450.085999 384.062134,450.012085 
	C386.506866,449.666656 388.247742,449.384796 389.988586,449.102966 
	C386.833405,449.820129 383.678192,450.537262 380.212097,451.036194 
z"/>
<path fill="#079CED" opacity="1.000000" stroke="none" 
	d="
M834.081116,424.600708 
	C833.557129,422.252808 833.048889,419.472778 832.735168,416.365723 
	C833.318726,418.748688 833.707764,421.458649 834.081116,424.600708 
z"/>
<path fill="#030816" opacity="1.000000" stroke="none" 
	d="
M777.589783,657.070435 
	C777.589783,657.070435 777.542786,656.966492 777.884521,657.100037 
	C778.480957,657.146423 778.735718,657.059326 778.990417,656.972290 
	C780.091187,656.713684 781.192017,656.455017 782.636230,656.168213 
	C780.155945,657.152222 777.332214,658.164368 774.516174,658.813904 
	C775.545837,657.991028 776.567810,657.530701 777.589783,657.070435 
z"/>
<path fill="#030816" opacity="1.000000" stroke="none" 
	d="
M576.252563,544.121338 
	C578.731750,542.991638 581.494202,542.044312 584.626892,541.056152 
	C582.176697,542.111511 579.356323,543.207581 576.252563,544.121338 
z"/>
<path fill="#0790DD" opacity="1.000000" stroke="none" 
	d="
M390.305969,448.959045 
	C388.247742,449.384796 386.506866,449.666656 384.387573,449.914917 
	C387.197327,448.965424 390.385590,448.049500 393.902344,447.356201 
	C394.230896,447.578796 393.968231,447.937988 393.968231,447.937988 
	C392.853302,448.230377 391.738342,448.522736 390.305969,448.959045 
z"/>
<path fill="#079CED" opacity="1.000000" stroke="none" 
	d="
M649.194458,613.031616 
	C649.401611,615.533813 649.608765,618.036011 649.528992,620.726807 
	C649.242126,620.915344 649.030151,620.810425 649.031494,620.583740 
	C648.995850,619.912231 648.958862,619.467346 648.921875,619.022461 
	C648.978149,617.541870 649.034424,616.061340 649.074646,614.042603 
	C649.058655,613.504456 649.194458,613.031616 649.194458,613.031616 
z"/>
<path fill="#04040B" opacity="1.000000" stroke="none" 
	d="
M453.706421,368.386353 
	C453.934692,372.038940 453.970856,376.046417 453.953613,380.512329 
	C453.771576,376.894257 453.642975,372.817749 453.706421,368.386353 
z"/>
<path fill="#0790DD" opacity="1.000000" stroke="none" 
	d="
M393.735229,415.887848 
	C392.758698,416.149902 391.499237,416.345551 390.111694,416.249847 
	C391.139832,415.912811 392.296051,415.867126 393.735229,415.887848 
z"/>
<path fill="#030816" opacity="1.000000" stroke="none" 
	d="
M404.252960,436.564972 
	C404.544128,436.243774 404.889740,436.057159 405.498352,435.731567 
	C404.704681,437.633453 403.648010,439.674316 402.353271,441.550751 
	C402.246063,440.989960 402.376892,440.593567 402.507721,440.197205 
	C402.507721,440.197205 402.308594,440.195618 402.589722,440.089905 
	C403.039612,439.323242 403.208435,438.662262 403.377258,438.001251 
	C403.377228,438.001251 403.072449,437.956146 403.372284,438.024017 
	C403.832397,437.709747 403.992645,437.327637 404.152893,436.945496 
	C404.152863,436.945496 404.307434,436.699585 404.252960,436.564972 
z"/>
<path fill="#04040B" opacity="1.000000" stroke="none" 
	d="
M453.709839,549.378418 
	C453.933685,552.374634 453.967865,555.718872 453.950562,559.516357 
	C453.772797,556.555237 453.646484,553.140808 453.709839,549.378418 
z"/>
<path fill="#030816" opacity="1.000000" stroke="none" 
	d="
M750.770630,344.249023 
	C749.580383,344.486572 748.209473,344.497467 746.450684,344.367371 
	C747.571838,344.158356 749.080933,344.090393 750.770630,344.249023 
z"/>
<path fill="#04040B" opacity="1.000000" stroke="none" 
	d="
M649.913574,630.387573 
	C649.435364,630.719238 649.251404,631.062866 648.992432,631.686646 
	C648.805359,630.822998 648.693237,629.679077 648.807434,628.679688 
	C649.344971,629.644287 649.656067,630.464539 649.967163,631.284790 
	C650.097717,631.109497 650.258362,630.947510 650.344299,630.752563 
	C650.380371,630.670837 650.258057,630.519287 649.913574,630.387573 
z"/>
<path fill="#04040B" opacity="1.000000" stroke="none" 
	d="
M453.717102,507.368073 
	C453.942383,510.041901 453.976318,513.057495 453.957397,516.522217 
	C453.778259,513.884155 453.652008,510.796997 453.717102,507.368073 
z"/>
<path fill="#04040B" opacity="1.000000" stroke="none" 
	d="
M453.709290,390.367279 
	C453.931671,392.714813 453.968475,395.397980 453.952606,398.525635 
	C453.774536,396.214417 453.649109,393.458649 453.709290,390.367279 
z"/>
<path fill="#030816" opacity="1.000000" stroke="none" 
	d="
M407.921631,429.986298 
	C407.951691,428.704315 408.219055,427.152618 408.645172,425.248535 
	C408.588898,426.502960 408.373901,428.109772 407.921631,429.986298 
z"/>
<path fill="#04040B" opacity="1.000000" stroke="none" 
	d="
M649.108521,612.653748 
	C649.194458,613.031616 649.058655,613.504456 648.989258,613.740479 
	C648.792419,611.545959 648.665039,609.115479 648.723999,606.359375 
	C648.963806,607.084961 649.017273,608.136047 649.127563,609.578369 
	C649.130371,610.738281 649.076538,611.507080 649.108521,612.653748 
z"/>
<path fill="#079CED" opacity="1.000000" stroke="none" 
	d="
M650.222046,630.848267 
	C649.656067,630.464539 649.344971,629.644287 648.977417,628.423096 
	C648.997681,627.278198 649.074402,626.534241 649.196228,625.417358 
	C649.653259,626.833557 650.065125,628.622620 650.222046,630.848267 
z"/>
<path fill="#030816" opacity="1.000000" stroke="none" 
	d="
M394.218597,448.082123 
	C393.968231,447.937988 394.230896,447.578796 394.345093,447.387817 
	C394.882050,447.110382 395.304810,447.023926 396.199768,446.654114 
	C397.109100,446.224884 397.546295,446.078979 397.983459,445.933075 
	C396.811951,446.697479 395.640472,447.461853 394.218597,448.082123 
z"/>
<path fill="#079CED" opacity="1.000000" stroke="none" 
	d="
M777.179077,657.068542 
	C776.567810,657.530701 775.545837,657.991028 774.234924,658.651123 
	C773.506104,658.853699 773.066223,658.856445 772.295471,658.844666 
	C773.565918,658.242310 775.167175,657.654480 777.179077,657.068542 
z"/>
<path fill="#030816" opacity="1.000000" stroke="none" 
	d="
M763.146484,660.967896 
	C764.034119,660.516052 765.161499,660.254272 766.636230,660.039795 
	C765.784424,660.444031 764.585327,660.800964 763.146484,660.967896 
z"/>
<path fill="#04040B" opacity="1.000000" stroke="none" 
	d="
M453.723053,444.328125 
	C453.940308,445.728851 453.976715,447.428925 453.959839,449.551270 
	C453.785126,448.191498 453.663635,446.409515 453.723053,444.328125 
z"/>
<path fill="#04040B" opacity="1.000000" stroke="none" 
	d="
M453.727539,452.307312 
	C453.939697,453.402100 453.974335,454.776978 453.956787,456.561768 
	C453.786377,455.510284 453.668182,454.048859 453.727539,452.307312 
z"/>
<path fill="#030816" opacity="1.000000" stroke="none" 
	d="
M769.157837,659.994263 
	C769.167542,659.635925 769.425049,659.494141 769.877991,659.254822 
	C770.494385,659.127502 770.936951,659.136902 771.712524,659.165405 
	C771.158264,659.513489 770.271179,659.842529 769.157837,659.994263 
z"/>
<path fill="#04040B" opacity="1.000000" stroke="none" 
	d="
M453.724670,434.310913 
	C453.935791,435.404358 453.970551,436.777832 453.952850,438.560791 
	C453.783051,437.510498 453.665680,436.050720 453.724670,434.310913 
z"/>
<path fill="#04040B" opacity="1.000000" stroke="none" 
	d="
M453.726624,584.308838 
	C453.939575,585.403381 453.974670,586.777588 453.956940,588.561523 
	C453.785675,587.510254 453.667236,586.049377 453.726624,584.308838 
z"/>
<path fill="#0790DD" opacity="1.000000" stroke="none" 
	d="
M402.172394,440.337067 
	C402.376892,440.593567 402.246063,440.989960 402.043030,441.690613 
	C401.518463,442.360352 401.066071,442.725830 400.362427,443.242859 
	C400.686432,442.421936 401.261749,441.449432 402.172394,440.337067 
z"/>
<path fill="#04040B" opacity="1.000000" stroke="none" 
	d="
M453.747101,659.253906 
	C453.927460,659.848633 453.952972,660.669495 453.962524,661.737488 
	C453.828430,661.149780 453.710358,660.314880 453.747101,659.253906 
z"/>
<path fill="#030816" opacity="1.000000" stroke="none" 
	d="
M511.878479,557.946655 
	C511.596893,557.042847 511.527130,555.846191 511.560608,554.208191 
	C511.806030,555.062500 511.948181,556.358215 511.878479,557.946655 
z"/>
<path fill="#04040B" opacity="1.000000" stroke="none" 
	d="
M453.732056,419.286652 
	C453.936951,420.082764 453.972656,421.134949 453.956299,422.579285 
	C453.790436,421.828522 453.676636,420.685608 453.732056,419.286652 
z"/>
<path fill="#030816" opacity="1.000000" stroke="none" 
	d="
M511.935242,548.981079 
	C512.147400,548.397766 512.667053,547.708862 513.587708,547.063477 
	C513.406677,547.696472 512.824707,548.285950 511.935242,548.981079 
z"/>
<path fill="#030816" opacity="1.000000" stroke="none" 
	d="
M259.239197,451.148926 
	C260.051666,450.966858 261.117584,450.970367 262.579407,451.030701 
	C261.814423,451.169891 260.653534,451.252197 259.239197,451.148926 
z"/>
<path fill="#030816" opacity="1.000000" stroke="none" 
	d="
M291.108337,451.401306 
	C291.670532,451.526459 292.323853,451.906128 292.895935,452.631775 
	C292.276276,452.537140 291.737885,452.096497 291.108337,451.401306 
z"/>
<path fill="#04040B" opacity="1.000000" stroke="none" 
	d="
M453.732819,523.284790 
	C453.937164,524.081482 453.971832,525.133789 453.953613,526.578064 
	C453.788208,525.826843 453.675659,524.683594 453.732819,523.284790 
z"/>
<path fill="#030816" opacity="1.000000" stroke="none" 
	d="
M511.856750,634.968323 
	C511.594391,634.365723 511.525177,633.496216 511.557495,632.198608 
	C511.789337,632.747437 511.919647,633.724487 511.856750,634.968323 
z"/>
<path fill="#030816" opacity="1.000000" stroke="none" 
	d="
M255.358765,449.950745 
	C256.046082,449.947510 257.034973,450.175995 258.301941,450.673370 
	C257.606781,450.689026 256.633545,450.435730 255.358765,449.950745 
z"/>
<path fill="#030816" opacity="1.000000" stroke="none" 
	d="
M405.926514,435.755127 
	C405.921448,435.326141 406.120636,434.588837 406.645508,433.633667 
	C406.691071,434.092804 406.410950,434.769836 405.926514,435.755127 
z"/>
<path fill="#0790DD" opacity="1.000000" stroke="none" 
	d="
M434.992706,305.631409 
	C434.587341,305.684509 434.018585,305.450989 433.208832,305.018280 
	C433.588318,304.994354 434.208801,305.169586 434.992706,305.631409 
z"/>
<path fill="#04040B" opacity="1.000000" stroke="none" 
	d="
M648.799805,619.209106 
	C648.958862,619.467346 648.995850,619.912231 648.976135,620.688232 
	C648.838928,620.478210 648.758301,619.936951 648.799805,619.209106 
z"/>
<path fill="#0790DD" opacity="1.000000" stroke="none" 
	d="
M398.055115,445.718964 
	C397.546295,446.078979 397.109100,446.224884 396.342163,446.486908 
	C396.558746,446.173950 397.105103,445.744904 397.983002,445.204987 
	C398.314575,445.094147 398.126801,445.504852 398.055115,445.718964 
z"/>
<path fill="#04040B" opacity="1.000000" stroke="none" 
	d="
M453.778015,539.209412 
	C453.933472,539.461243 453.967133,539.893860 453.950378,540.649048 
	C453.818695,540.444458 453.737427,539.917297 453.778015,539.209412 
z"/>
<path fill="#04040B" opacity="1.000000" stroke="none" 
	d="
M453.781555,499.208832 
	C453.938202,499.460907 453.972534,499.894043 453.956573,500.650146 
	C453.823944,500.445374 453.741608,499.917633 453.781555,499.208832 
z"/>
<path fill="#04040B" opacity="1.000000" stroke="none" 
	d="
M648.812195,591.152283 
	C648.859131,591.038452 648.931946,591.500061 648.896667,591.731079 
	C648.723816,591.737000 648.691772,591.505005 648.812195,591.152283 
z"/>
<path fill="#079CED" opacity="1.000000" stroke="none" 
	d="
M356.199158,416.834351 
	C356.016937,416.981171 356.004059,416.516571 355.995972,416.284332 
	C356.155243,416.006805 356.322662,415.961487 356.747681,415.952515 
	C356.809723,416.232880 356.601746,416.465759 356.199158,416.834351 
z"/>
<path fill="#04040B" opacity="1.000000" stroke="none" 
	d="
M648.872681,661.143433 
	C648.899780,661.018433 648.993774,661.505432 648.987915,661.753540 
	C648.858887,661.765381 648.813477,661.520935 648.872681,661.143433 
z"/>
<path fill="#0790DD" opacity="1.000000" stroke="none" 
	d="
M435.735474,306.030212 
	C435.976746,306.103088 435.581879,306.161774 435.581879,306.161774 
	C435.581879,306.161774 435.220215,306.011566 435.112640,305.923462 
	C435.168091,305.876007 435.331116,305.916656 435.735474,306.030212 
z"/>
<path fill="#030816" opacity="1.000000" stroke="none" 
	d="
M291.968781,456.108307 
	C292.050537,456.158020 292.069885,456.327026 292.030212,456.744324 
	C291.829376,456.741760 291.807800,456.486755 291.968781,456.108307 
z"/>
<path fill="#03142B" opacity="1.000000" stroke="none" 
	d="
M739.969299,395.102997 
	C740.429382,395.071014 740.889404,395.039062 741.876831,395.394836 
	C745.795654,396.489258 749.187195,397.195953 752.578674,397.902649 
	C761.995483,399.644318 771.079651,408.438599 773.118958,417.737213 
	C773.670654,420.252899 774.338989,422.742950 774.748413,425.965515 
	C774.988831,429.779358 775.434692,432.872498 775.880554,435.965637 
	C775.946777,436.148315 776.013062,436.331024 776.131714,437.021576 
	C776.184082,437.529388 776.024109,437.992279 775.816040,438.349976 
	C775.405334,440.340790 775.027100,441.973755 775.025757,443.607056 
	C774.994019,482.482574 774.987915,521.358093 775.047791,560.233582 
	C775.050781,562.160217 775.692078,564.085876 776.119629,566.371948 
	C776.245117,567.468628 776.287231,568.205444 776.329346,568.942200 
	C775.791199,573.384827 775.517761,577.878723 774.668335,582.261047 
	C771.335144,599.457214 760.943542,609.246399 742.414917,611.151245 
	C730.703369,612.355225 718.822083,611.907715 706.611877,611.618530 
	C706.138000,597.023621 706.069153,583.011047 706.000244,568.998535 
	C723.231628,548.073792 740.463013,527.149048 758.068298,505.770172 
	C740.633545,486.407654 723.502991,467.383057 706.075928,447.690735 
	C705.910889,429.675018 706.042358,412.327118 706.630859,394.978210 
	C713.382263,394.683472 719.676636,394.389709 725.970947,394.096008 
	C727.053833,394.056732 728.136719,394.017456 729.808899,394.369934 
	C733.588562,394.875458 736.778931,394.989227 739.969299,395.102997 
z"/>
<path fill="#079CED" opacity="1.000000" stroke="none" 
	d="
M776.617188,568.714478 
	C776.287231,568.205444 776.245117,567.468628 776.200806,565.908447 
	C776.227356,528.527893 776.268250,491.970673 776.272827,455.413483 
	C776.273560,449.606415 776.111145,443.799347 776.024109,437.992279 
	C776.024109,437.992279 776.184082,437.529388 776.242004,437.291473 
	C776.857544,438.854492 777.897522,440.654297 777.901672,442.456543 
	C777.995544,482.731476 777.988708,523.006653 777.931335,563.281738 
	C777.928833,565.017212 777.262268,566.751770 776.617188,568.714478 
z"/>
<path fill="#079CED" opacity="1.000000" stroke="none" 
	d="
M706.173828,394.979187 
	C706.042358,412.327118 705.910889,429.675018 705.798462,447.488037 
	C705.219360,446.351044 704.116516,444.753601 704.101685,443.146149 
	C703.966248,428.414795 703.979309,413.681366 704.079224,398.949463 
	C704.089355,397.444946 704.950989,395.946228 705.711914,394.477966 
	C706.006348,394.511108 706.173828,394.979187 706.173828,394.979187 
z"/>
<path fill="#0790DD" opacity="1.000000" stroke="none" 
	d="
M705.669434,569.194519 
	C706.069153,583.011047 706.138000,597.023621 706.162720,611.500854 
	C705.425842,610.760437 704.146301,609.562683 704.130981,608.349060 
	C703.980286,596.393311 704.007751,584.434631 704.095764,572.477661 
	C704.103394,571.445557 704.905518,570.419434 705.669434,569.194519 
z"/>
<path fill="#030816" opacity="1.000000" stroke="none" 
	d="
M706.630859,394.978210 
	C706.173828,394.979187 706.006348,394.511108 706.032471,394.263916 
	C712.386719,394.008942 718.714844,394.001099 725.506958,394.044617 
	C719.676636,394.389709 713.382263,394.683472 706.630859,394.978210 
z"/>
<path fill="#030816" opacity="1.000000" stroke="none" 
	d="
M752.370728,397.568756 
	C749.187195,397.195953 745.795654,396.489258 742.214050,395.479614 
	C745.403564,395.862732 748.783203,396.548798 752.370728,397.568756 
z"/>
<path fill="#030816" opacity="1.000000" stroke="none" 
	d="
M739.563110,395.048645 
	C736.778931,394.989227 733.588562,394.875458 730.208862,394.448730 
	C733.065308,394.421967 736.111145,394.708130 739.563110,395.048645 
z"/>
<path fill="#079CED" opacity="1.000000" stroke="none" 
	d="
M757.680054,660.795654 
	C755.614380,661.302917 753.228455,661.605896 750.436401,661.872681 
	C752.473511,661.421509 754.916626,661.006348 757.680054,660.795654 
z"/>
<path fill="#030816" opacity="1.000000" stroke="none" 
	d="
M775.925598,435.550842 
	C775.434692,432.872498 774.988831,429.779358 774.730286,426.359863 
	C775.268616,429.067688 775.619629,432.101868 775.925598,435.550842 
z"/>
<path fill="#079CED" opacity="1.000000" stroke="none" 
	d="
M778.798096,656.976929 
	C778.735718,657.059326 778.480957,657.146423 777.832397,657.123230 
	C777.827698,657.002502 778.216736,656.992065 778.798096,656.976929 
z"/>
<path fill="#079CED" opacity="1.000000" stroke="none" 
	d="
M650.502563,596.505005 
	C650.484558,596.511841 650.520508,596.498230 650.502563,596.505005 
z"/>
<path fill="#03142B" opacity="1.000000" stroke="none" 
	d="
M569.053284,484.854980 
	C564.933289,491.954041 557.897034,494.103760 550.554260,495.596802 
	C547.343750,496.249603 544.049561,496.491119 539.910767,497.007874 
	C530.713074,497.233612 522.397888,497.370880 514.082764,497.508148 
	C513.354492,497.328156 512.626221,497.148132 511.567017,496.421204 
	C511.209137,461.924347 511.182159,427.974396 511.155212,394.024414 
	C524.643616,394.695984 538.215759,394.673584 551.590698,396.286011 
	C560.336792,397.340424 567.759521,402.092377 570.918457,411.839600 
	C571.162292,413.958374 571.544312,415.464111 571.926331,416.969818 
	C571.926331,416.969818 571.991394,417.440338 572.000610,418.134613 
	C572.638611,422.213989 573.267395,425.599091 573.896118,428.984192 
	C573.954346,429.748535 574.012573,430.512848 573.806641,431.997131 
	C573.671326,435.803253 573.800232,438.889374 573.929138,441.975525 
	C573.976379,442.433624 574.023682,442.891754 573.818359,443.989380 
	C573.687134,446.411469 573.808594,448.194000 573.929932,449.976532 
	C573.959961,454.683868 573.989929,459.391235 573.627319,464.752319 
	C572.492249,470.605408 571.749756,475.804779 571.007263,481.004120 
	C570.871887,481.558624 570.736572,482.113129 570.196838,483.052246 
	C569.546082,483.909576 569.299683,484.382294 569.053284,484.854980 
z"/>
<path fill="#079CED" opacity="1.000000" stroke="none" 
	d="
M510.927979,394.371155 
	C511.182159,427.974396 511.209137,461.924347 511.202545,496.327637 
	C510.776550,495.480743 510.044037,494.181274 510.041382,492.880310 
	C509.977264,461.616211 509.981750,430.351929 510.021271,399.087738 
	C510.023102,397.630859 510.464233,396.174530 510.927979,394.371155 
z"/>
<path fill="#079CED" opacity="1.000000" stroke="none" 
	d="
M455.183655,345.123505 
	C472.949799,344.834717 490.871613,344.726379 508.793579,344.697754 
	C525.227234,344.671539 541.661072,344.731323 558.547974,344.882446 
	C556.743469,345.352539 554.486572,345.984802 552.228027,345.990326 
	C520.479980,346.067841 488.731720,346.060028 456.520874,346.098633 
	C455.818665,345.862427 455.579041,345.600586 455.183655,345.123505 
z"/>
<path fill="#079CED" opacity="1.000000" stroke="none" 
	d="
M514.322144,497.777130 
	C522.397888,497.370880 530.713074,497.233612 539.491211,497.149170 
	C539.491028,497.657959 539.023254,498.515411 538.565430,498.510162 
	C530.563416,498.418274 522.562561,498.220703 514.322144,497.777130 
z"/>
<path fill="#030816" opacity="1.000000" stroke="none" 
	d="
M571.205750,480.688904 
	C571.749756,475.804779 572.492249,470.605408 573.545227,465.213623 
	C573.038574,470.138672 572.221375,475.256165 571.205750,480.688904 
z"/>
<path fill="#030816" opacity="1.000000" stroke="none" 
	d="
M573.920288,428.560425 
	C573.267395,425.599091 572.638611,422.213989 572.016968,418.371582 
	C572.664307,421.321716 573.304443,424.729156 573.920288,428.560425 
z"/>
<path fill="#030816" opacity="1.000000" stroke="none" 
	d="
M573.983032,441.526489 
	C573.800232,438.889374 573.671326,435.803253 573.732971,432.375336 
	C573.961304,435.048218 573.999084,438.062836 573.983032,441.526489 
z"/>
<path fill="#030816" opacity="1.000000" stroke="none" 
	d="
M572.046021,416.707642 
	C571.544312,415.464111 571.162292,413.958374 570.935181,412.200684 
	C571.448547,413.447601 571.807068,414.946533 572.046021,416.707642 
z"/>
<path fill="#030816" opacity="1.000000" stroke="none" 
	d="
M573.984741,449.554321 
	C573.808594,448.194000 573.687134,446.411469 573.747314,444.329285 
	C573.965759,445.730499 574.002625,447.431305 573.984741,449.554321 
z"/>
<path fill="#030816" opacity="1.000000" stroke="none" 
	d="
M569.274658,484.692810 
	C569.299683,484.382294 569.546082,483.909576 569.966675,483.231750 
	C569.926025,483.527985 569.711060,484.029327 569.274658,484.692810 
z"/>
<path fill="#0790DD" opacity="1.000000" stroke="none" 
	d="
M403.159119,438.259216 
	C403.208435,438.662262 403.039612,439.323242 402.591370,440.189453 
	C402.521606,439.768860 402.731293,439.143005 403.159119,438.259216 
z"/>
<path fill="#0790DD" opacity="1.000000" stroke="none" 
	d="
M403.955261,437.156494 
	C403.992645,437.327637 403.832397,437.709747 403.349854,438.176422 
	C403.270935,437.963135 403.514282,437.665283 403.955261,437.156494 
z"/>
<path fill="#030816" opacity="1.000000" stroke="none" 
	d="
M775.816040,438.349976 
	C776.111145,443.799347 776.273560,449.606415 776.272827,455.413483 
	C776.268250,491.970673 776.227356,528.527893 776.117371,565.548523 
	C775.692078,564.085876 775.050781,562.160217 775.047791,560.233582 
	C774.987915,521.358093 774.994019,482.482574 775.025757,443.607056 
	C775.027100,441.973755 775.405334,440.340790 775.816040,438.349976 
z"/>
</svg>